<?xml version="1.0" encoding="UTF-8"?>
<svg id="_レイヤー_1" xmlns="http://www.w3.org/2000/svg" viewBox="0 0 573 477">
  <defs>
    <style>
      .cls-1 {
        fill: #541236;
      }
    </style>
  </defs>
  <path class="cls-1" d="M160.27,158.39h15.99c3.84,0,7.68-.03,11.52,0,4.36.04,6.12,1.76,6.13,6.07.03,7.58,0,15.16,0,22.75v3.42h40.52c0-2.34-.02-4.75,0-7.15.04-4.38,1.74-6.17,6.02-6.18,7.98-.03,15.95-.04,23.93,0,3.99.02,5.78,1.79,5.81,5.78.05,8.27.02,16.54.02,24.81v3.79h3.91c9.45,0,18.91-.02,28.36,0,4.52.01,5.9,1.1,7.08,5.49,5.13,19.09,10.24,38.18,15.37,57.27.22.82.49,1.63,1.15,2.41.04-.91.12-1.82.12-2.73,0-9.26,0-18.51.01-27.77.01-5.52,1.55-7.07,6.98-7.07h39.5c0-2.18-.04-4.2,0-6.21.09-3.57,1.89-5.5,5.49-5.51,12.7-.06,25.4-.06,38.11,0,3.58.02,5.53,1.97,5.54,5.52.04,28.46.04,56.91,0,85.37,0,3.52-2,5.33-5.59,5.45-.39.01-.79,0-1.18,0H157.18c-5.33,0-7-1.57-7-6.78,0-60.65-.43-121.31.16-181.96.62-64.59,44.69-118.61,107.98-131.6,47.9-9.84,89.74,3.37,124.75,37.71,2.04,2,2.99,4.22,1.45,6.86-1.32,2.26-3.54,2.92-5.88,2.07-1.3-.48-2.44-1.62-3.46-2.64-19.29-19.22-42.34-31.22-69.23-35.48-60.43-9.55-118.62,25.4-138.76,83.15-4.48,12.84-6.7,26.09-6.91,39.66-.12,7.66-.02,15.33-.02,23.51h.01ZM234.28,201.14h-40.09v112.45h40.09v-112.45h0ZM325.04,313.81c-1.13-4.23-2.11-7.93-3.1-11.62-6.92-25.83-13.88-51.66-20.71-77.51-.63-2.37-1.66-3.07-4.04-2.99-5.8.18-11.62.06-17.42.06h-5.81c.45,1.87.75,3.19,1.1,4.5,2.86,10.74,5.73,21.47,8.6,32.2,4.7,17.57,9.38,35.15,14.16,52.7.27,1,1.32,2.53,2.04,2.55,8.25.18,16.51.12,25.19.12h-.01ZM336.55,249.55v64.07h35.99v-64.07h-35.99ZM260,313.71v-126.33h-15.2v126.33h15.2ZM160.59,211.74c-.15.51-.3.78-.3,1.05-.02,23.43-.02,46.85-.07,70.28,0,2.02,1.06,2.19,2.61,2.18,5.91-.04,11.82-.17,17.71.05,2.84.1,3.43-.94,3.42-3.54-.09-22.24-.05-44.49-.06-66.73,0-1.05-.12-2.09-.2-3.28h-23.11,0ZM160.52,168.68v32.59h23.14v-32.59h-23.14,0ZM288,313.67c-5.82-21.77-11.51-43.06-17.2-64.35-.11.04-.22.07-.34.11v64.24h17.54ZM382.74,265.01c0,5.17.09,9.99-.04,14.8-.06,2.18.88,2.6,2.81,2.58,7.97-.08,15.94-.03,23.91-.05.74,0,1.48-.18,2.17-.27v-17.06h-28.85,0ZM382.77,237.71c0,5.36-.07,10.44.1,15.51.02.54,1.4,1.45,2.17,1.47,5.11.13,10.22.07,15.33.07h11.18v-17.06h-28.78ZM183.91,313.68c0-5.43-.09-10.53.04-15.62.06-2.26-.82-2.87-2.94-2.83-5.01.11-10.02.03-15.03.03-3.82,0-5.73,1.94-5.73,5.82v12.59h23.66ZM411.67,306.27h-22.7c-4.49,0-6.52,2.24-6.08,6.73.02.17.18.33.34.61h28.43v-7.33h.01ZM411.8,292.67h-28.69c-.88,2.66-.1,3.63,2.52,3.57,5.59-.13,11.19-.04,16.79-.04h9.22c.06-1.33.11-2.28.16-3.53h0Z"/>
  <path class="cls-1" d="M283.37,146.22c2.18-10.15,4.21-19.66,6.27-29.17,3.29-15.18,6.6-30.36,9.86-45.55.4-1.86.74-3.11,3.25-3.1,24.32.11,48.64.07,72.95.07.68,0,1.36.09,2.27.16v24.31h-3.37c-17.13,0-34.26.05-51.39-.05-2.35,0-3.27.72-3.63,3.01-.52,3.38-1.39,6.7-2.19,10.4,2.95-.51,5.6-1.14,8.28-1.41,19.67-1.95,36.43,3.34,48.62,19.79,15.11,20.41,13.46,65.57-25,77.13-11.49,3.45-23.21,3.29-34.62-.41-16.76-5.43-25.85-17.82-29.86-34.42-.8-3.3-1.15-6.7-1.78-10.49h18.74c3.64,0,5.93,1.79,6.86,5.37,3.23,12.41,12.46,18.58,26.32,17.61,13.7-.95,21.86-8.88,22.96-22.3,1.14-14.03-5.67-24.37-18.02-27.36-12.36-3-23.54,1.64-30.82,13.17-1.6,2.53-3.24,3.39-6.11,3.29-6.37-.2-12.75-.06-19.59-.06h0Z"/>
  <path class="cls-1" d="M241.11,72.51c-6.62,3.24-12.84,6.28-19.77,9.67v-6.57c0-6.3-.07-12.6.07-18.89.02-1.06.68-2.59,1.52-3.08,8.39-4.87,15.03-11.7,21.37-18.86,1.36-1.53,2.75-2.22,4.81-2.17,5.48.13,10.96.04,16.62.04v133.84h-24.64v-93.98h.02Z"/>
  <path class="cls-1" d="M321.42,358.65h92.72c.98,0,1.97-.05,2.95.03,2.71.23,4.64,2.2,4.75,4.75.11,2.42-1.54,4.55-4.06,5.08-.95.2-1.95.19-2.93.19h-186.92c-1.17,0-2.39-.01-3.5-.33-2.49-.72-3.72-2.52-3.53-5.11.18-2.61,1.74-4.1,4.26-4.54.96-.17,1.96-.07,2.95-.07h93.31,0Z"/>
  <path class="cls-1" d="M484.83,474.27c9.52-15.88,8.18-33.42,8.45-50.71-2.98,0-5.71-.11-8.41.08-.61.04-1.59,1.12-1.64,1.77-.2,2.54-.23,5.13,0,7.67.07.84.97,1.73,1.69,2.38,2.01,1.84,4.44,3.33,6.09,5.44.99,1.28,1.12,3.47,1.05,5.23-.03.73-1.55,1.92-2.43,1.96-.77.03-1.94-1.11-2.33-2-1.2-2.69-2.12-5.52-3.15-8.29-.34.08-.68.16-1.01.25v32.03c0,4.46-.7,5.13-5.73,5.24v-31.7c-.17-.04-.34-.08-.51-.12-2.84,4.64-5.68,9.29-8.53,13.93-.43-.18-.85-.35-1.28-.53.24-.93.35-1.91.74-2.77,4.31-9.59,6.71-19.69,8.25-30.31-3.02-.24-5.92-.47-8.83-.7.03-.47.06-.95.09-1.42h9.8v-18.86c3.27.25,6.1.48,8.94.7.18.2.36.4.54.61-5.07,1.72-3.23,5.68-3.43,8.92-.17,2.7-.03,5.41-.03,8.11.31.13.63.25.94.38,1.22-1.49,2.44-2.99,3.85-4.7,1.59,1.2,3.2,2.41,5.28,3.98v-16.16c5.57,1.28,10.98,5.76,15.81-.94,2.23,1.66,4.41,3.28,7.14,5.32-4.22,1.04-3.34,4.03-3.34,6.64-.02,16.15,0,32.29,0,48.44,0,1.08.02,2.17-.04,3.25-.29,5.16-2.2,7.04-7.95,7.46.4-4.59-3.16-5.12-6.62-5.76.06-.36.12-.72.18-1.09,1.8,0,3.61-.13,5.39.03,2.37.22,3.31-.51,3.23-3.07-.18-5.69-.06-11.4-.06-17.33h-8.62c-.43,2.25-.84,4.64-1.36,7-1.49,6.84-4.26,13.08-8.94,18.37-.66.74-1.6,1.24-2.4,1.84-.26-.19-.52-.38-.77-.56h-.05ZM506.77,409.18h-7.91c0,5.36-.04,10.54.06,15.71,0,.51.85,1.4,1.36,1.44,2.11.16,4.25.07,6.49.07v-17.22h0ZM498.91,428.54v16.79h7.76v-16.79h-7.76Z"/>
  <path class="cls-1" d="M462.02,455.57c-1.73,1.56-3.78,3.41-6.14,5.55-12.58-8.37-20.78-20.67-26.93-34.81-.08.71-.22,1.42-.22,2.13-.01,8.17-.05,16.34.04,24.51.01,1.11.72,3.15,1.06,3.15,1.81-.05,3.84-.23,5.35-1.12,1.3-.77,2.01-2.54,3.18-4.14,2.58,2.02,4.93,3.85,7.28,5.68l-.08.9c-1.42.32-2.84.85-4.27.91-3.34.14-6.69.13-10.04.03-1.94-.06-2.61.72-2.55,2.6.09,2.95.02,5.91.02,8.86,0,4.94-1.07,5.91-6.7,5.59v-8.65c0-5.59-2.84-8.38-8.53-8.38-1.87,0-3.75.08-5.61-.04-.81-.05-1.58-.51-2.37-.79.04-.3.08-.6.12-.9,1-.1,2.01-.27,3.01-.28,3.64-.04,7.29-.04,10.93-.01,1.45.01,2.47-.23,2.46-2.06-.05-7.37-.02-14.75-.34-22.35-8.09,13.08-18.79,23.14-32.17,30.19-.36-.34-.73-.68-1.09-1.02,12.8-9.86,22.41-22.08,28.72-37.46h-13.92c-3.74,0-7.48.05-11.22-.04-.79-.02-1.57-.54-2.36-.83l.25-1.05h3.16c8.76,0,17.52-.06,26.29.04,2.06.02,2.76-.65,2.72-2.71-.1-5.29-.03-10.59-.03-16.38,3.49.31,6.64.59,9.78.87-.04.54,0,.87-.07.9-3.32,1.19-3.15,3.9-3.03,6.68.11,2.65.09,5.32,0,7.97-.05,1.8.43,2.7,2.47,2.66,5.31-.11,10.63.04,15.95-.1,1-.03,2.18-.71,2.92-1.44,1.24-1.23,2.19-2.74,3.42-4.34,2.79,2.07,5.43,4.04,8.07,6-.04.31-.09.62-.13.92-1.54.28-3.08.79-4.62.81-8.56.08-17.11.04-26.28.04,3.65,7.33,8.16,13.5,13.95,18.5,5.66,4.88,11.89,9.1,17.57,13.39l-.02.02Z"/>
  <path class="cls-1" d="M31.03,460.55c.78.2,1.58.36,2.35.62,2.14.73,4.24,1.56,6.4,2.23,5.64,1.75,7.74.88,9.89-4.54,3.57-8.96,5.01-18.38,5.45-27.95.14-3.02-.74-3.72-3.7-3.4-4.5.48-8.98,1.13-13.48,1.56-2.11.2-2.98,1.15-3.45,3.2-2.77,12.05-7.35,23.24-15.9,32.47-4.4,4.75-9.55,8.47-15.36,11.32-.77.38-1.6.62-2.78.52,6.49-6.16,12.73-12.43,17.33-20.11,4.68-7.79,7.86-16.15,10.22-25.8-4.45,1.3-8.18,2.39-11.9,3.49-6.36,1.86-12.68-3.41-12.28-10.31.27-.04.67-.22.8-.09,3.85,3.42,8.5,3.16,13.13,2.81,3.14-.24,6.28-.53,9.37-1.08.84-.15,2.01-1.26,2.15-2.08.54-3.09.79-6.24,1-9.38.2-3.06-.7-5.48-4.23-5.98-.18-.03-.37-.15-.51-.28-.14-.12-.24-.3-.57-.74,1.67-1.96,4.07-2.76,6.38-2.63,3.61.19,6.49,2.32,8.45,5.26.57.85.03,2.63-.33,3.89-.98,3.44-2.13,6.83-3.21,10.24.25.32.5.64.74.95,5.24-1.03,10.73-1.42,15.64-3.31,3.5-1.34,5.73-.8,8.26,1.23,4.22,3.37,4.12,4.45,2.46,9.49-1.86,5.66-2.81,11.61-4.25,17.4-1.16,4.67-2.22,9.38-3.75,13.94-1.56,4.63-4.31,8.43-9.49,9.66-3.38.8-4.58.04-6.53-2.87-1.4-2.09-3.32-3.84-5.11-5.63-1.14-1.14-2.47-2.08-3.72-3.11.16-.33.32-.66.49-.99h.04Z"/>
  <path class="cls-1" d="M330.65,414.78c7.05,2.29,13.2.18,19.2-2.74,3.55-1.72,10.82,1.91,11.07,5.86.07,1.11-1.09,2.68-2.13,3.42-7.38,5.21-13.34,11.86-19.1,18.92.93-.39,1.86-.79,2.8-1.17,5.38-2.19,10.87-2.76,16.41-.81,11.32,3.98,14.62,17.52,6.18,26.07-6.34,6.42-14.28,7.94-22.89,5.78-2.96-.74-5.31-2.54-6.31-5.67-1.6-5.02,1.59-9.79,6.83-10,1.64-.07,3.35.17,4.95.57,4.84,1.2,6.93,3.55,7.82,8.9,1.08-.66,2.09-1.13,2.93-1.81,4.72-3.9,6.29-10.83,3.71-16.04-2.46-4.96-9.24-7.33-16.03-5.51-5.97,1.6-10.52,5.19-13.83,10.38-1.16,1.82-2.1,3.83-3.51,5.44-.66.75-2.3,1.21-3.26.94-.78-.22-1.81-1.82-1.67-2.62.38-2.17.91-4.52,2.13-6.28,2.11-3.06,4.75-5.75,7.23-8.55,5.53-6.27,11.19-12.43,16.56-18.83,1.06-1.27,1.06-3.44,1.54-5.19-1.54.66-3.16,1.19-4.61,2-1.62.91-3.06,2.15-4.65,3.12-4.81,2.95-10.53-.02-11.36-6.19h-.01ZM348.87,466.15c.31-5.16-1.93-8.32-5.8-8.45-1.34-.04-3.22.92-3.98,2.03-1.18,1.73-.06,3.61,1.71,4.29,2.47.95,5.14,1.39,8.07,2.13Z"/>
  <path class="cls-1" d="M516.99,404.65c5.81,1.4,11.42,5.76,16.47-1.01,2.28,1.71,4.52,3.39,7.37,5.53-4.65.98-3.68,4.13-3.68,6.83-.02,17.23.01,34.47-.03,51.7-.01,5.22-2.37,7.44-7.97,7.47.33-4.39-3-5.22-6.64-5.71.12-.38.24-.76.36-1.13,2.05,0,4.12.15,6.15-.08.78-.09,2.08-1.04,2.1-1.62.15-6.28.09-12.56.09-19.04h-8.25c-.41,3.79-.68,7.5-1.24,11.17-.87,5.73-2.87,11.04-6.71,15.5-.46.53-1.37.68-2.07,1.01.08-.71,0-1.48.26-2.11,2.77-6.36,3.59-13.1,3.66-19.91.15-14.97.1-29.93.12-44.9v-3.7h.01ZM523.03,409.09v17.13h7.94v-17.13h-7.94ZM523.06,428.56v16.71h7.92v-16.71h-7.92Z"/>
  <path class="cls-1" d="M411.67,160.58c0-11.61.02-23.22-.01-34.84,0-2.48.68-4.48,3.12-5.48,2.73-1.12,5.79.34,6.56,3.2.3,1.12.33,2.33.33,3.51.02,22.44.01,44.87.01,67.31,0,.79.02,1.58-.07,2.36-.34,2.92-2.37,4.86-5,4.85-2.77-.01-4.84-2.1-4.92-5.18-.09-3.54-.03-7.08-.03-10.63v-25.09h.01Z"/>
  <path class="cls-1" d="M83.81,416.68c5.48-4.47,12.05-3.34,14.97,1.83.44.77.49,1.88.39,2.8-.77,7.7-1.84,15.37-2.37,23.08-.35,5.08-.03,10.22.16,15.33.15,4.07,1.21,4.74,4.98,3.07,11.51-5.11,21.87-12.03,31.3-20.32,4.35-3.83,8.43-7.97,12.65-11.95.39-.37.91-.6,1.93-.53-.49,1.06-.85,2.2-1.49,3.17-6.61,10.07-14.98,18.46-24.66,25.55-6.74,4.93-13.61,9.69-20.45,14.48-.69.48-1.61.85-2.43.89-3.91.17-9.78-6.66-9.27-10.54,1.72-13.22,1.66-26.48.83-39.75-.23-3.69-1.52-6.74-6.54-7.1h0Z"/>
  <path class="cls-1" d="M276.86,452.13c0-3.25-.13-6.49.03-9.72.28-5.58,3.08-9.55,7.93-12.3,1.37-.78,2.31-2.32,3.44-3.51-1.56-1.04-3.05-2.22-4.7-3.06-.9-.46-2.08-.36-3.62-.59.75-.58,1.11-1.05,1.55-1.16,4.04-.98,8.02-.86,11.79,1.03,3,1.51,4.38,4.15,4.59,7.41.18,2.92-1.15,4-3.99,3.31-1.62-.39-3.21-.95-4.85-1.24-4.56-.8-8.05,1.67-7.99,6.29.05,4.69.87,9.39,1.56,14.05.09.62,1.34,1.19,2.15,1.55,2.86,1.28,5.89,2.23,8.61,3.76,1.42.8,2.67,2.37,3.34,3.89.43.96.07,2.95-.69,3.57-.7.57-2.63.34-3.59-.24-2.35-1.41-4.43-3.25-6.67-4.85-.52-.38-1.2-.53-2.15-.93,0,1.27.02,2.22,0,3.17-.14,5.66-3.45,9.44-9.09,9.55-3.16.06-6.48-.5-9.47-1.52-4.03-1.37-6.42-5.69-6.21-9.82.17-3.18,2.59-5.89,7.04-6.98,3.49-.86,7.13-1.08,11-1.63v-.03ZM271.54,456.87c-.02-.11-.03-.22-.05-.34-2.2.37-4.52.43-6.55,1.23-1.23.49-2.75,2.1-2.8,3.26-.06,1.33,1.04,3.24,2.22,3.99,2.91,1.87,6.29,2.07,9.59.96,2.65-.89,3.97-3.7,3.48-7.03-.42-2.87-2.84-1.63-4.43-2.06-.46-.12-.97-.02-1.46-.02h0Z"/>
  <path class="cls-1" d="M254.09,425.92c-8.05.36-12.33-2.4-12.19-8.18,3.82,3.36,8.16,3.43,12.58,2.5.89-.19,1.99-1.22,2.27-2.09,1.55-4.91,1.11-6.29-2.28-8.83,2.42-1.73,5.69-1.56,8.34.13,4.16,2.64.89,5.45.08,8.63,1.23-.45,2.11-.76,2.98-1.09.92-.35,1.81-.95,2.74-1.01,1.86-.12,4.33-.9,5.04,1.64.73,2.62-1.65,3.15-3.51,3.81-.09.03-.19.05-.28.08-3.32,1.13-7.43,1.42-9.74,3.61-2.34,2.22-2.83,6.34-4.27,9.57-2.4,5.38-4.91,10.71-7.4,16.05-.5,1.07-1.07,2.11-1.72,3.09-1.3,1.93-2.42,4.38-5.46,3.27-1.74-.63-2.19-4.34-.81-6.94.73-1.38,1.89-2.52,2.67-3.87,3.5-6.12,6.94-12.28,10.38-18.45.31-.56.39-1.25.6-1.93h-.02Z"/>
  <path class="cls-1" d="M163.47,434.51c5.13,4.54,11,3.48,16.58,3.21,9.71-.47,19.4-1.5,29.11-2.02,3.17-.17,6.41.34,9.55.93.85.16,2.14,1.91,1.97,2.62-.24.99-1.63,2.32-2.61,2.39-4.11.31-8.26,0-12.37.3-11.06.79-22.13,1.65-33.17,2.72-5.14.5-9.82-4.07-9.07-10.15h.01Z"/>
  <path class="cls-1" d="M394.13,220.97h-6.32v-24.59c0-3.69.02-3.7,3.82-3.6.67.02,1.35.12,2.34.2v10.05c.82-.42,1.23-.61,1.63-.83,4.48-2.49,9.16-.44,9.63,4.63.42,4.57.09,9.21.09,14.06h-6c0-3.05.02-6.15,0-9.26,0-1.18.23-2.53-.26-3.48-.47-.9-1.78-1.91-2.67-1.86-.79.04-2.1,1.44-2.15,2.29-.23,4.01-.1,8.04-.1,12.39h0Z"/>
  <path class="cls-1" d="M373.05,201.79c4,.13,2.23-2.97,3-4.61,5.08-1.49,5.89-.99,6.37,3.98.77.17,1.6.35,2.64.58v3.86c-2.08-.06-2.92.83-2.9,3.11.08,7.23-.04,7.23,3.04,8.28.11,1.19.22,2.44.33,3.63-5.31,2.38-9.24.12-9.64-5.42-.14-1.86.02-3.73-.09-5.59-.09-1.57.83-3.64-2-4.11-.41-.07-.47-2.23-.74-3.7h-.01Z"/>
  <path class="cls-1" d="M284.49,331.84v17.06c-2.71.94-4.44.33-5.65-2.22-1.15-2.43-2.67-4.68-4.64-6.84v9.17h-4.1v-17.09c2.44-.94,4.18-.51,5.42,2.07,1.22,2.54,2.81,4.9,4.9,7.26,0-2.16-.01-4.33,0-6.49q.02-3.49,4.06-2.93h.01Z"/>
  <path class="cls-1" d="M254.82,339.57v9.48h-3.97v-17.19c2.57-.87,4.31-.3,5.54,2.24,1.21,2.52,2.8,4.86,4.78,7.11v-9.47h3.94v17.19c-2.59.89-4.3.27-5.5-2.28-1.19-2.52-2.78-4.85-4.19-7.27-.2.06-.4.12-.6.18h0Z"/>
  <path class="cls-1" d="M397.51,349.03c-4.75.48-4.87.49-5.08-3.43-.17-3.11-1.89-3.2-4.42-2.63-.1,1.96-.19,3.9-.3,6.07h-4.1c0-5.39-.05-10.68.08-15.96.01-.51,1.04-1.37,1.66-1.43,1.75-.19,3.54-.17,5.3-.01,2.33.21,4.82.85,5.35,3.38.38,1.83-.37,3.9-.64,6.11.61,2.23,1.35,4.97,2.15,7.92v-.02ZM388.03,339.62c1.58-.58,2.83-.88,3.86-1.53.31-.19.26-1.81-.09-2.02-1.01-.63-2.26-.88-3.77-1.4v4.95h0Z"/>
  <path class="cls-1" d="M345.21,348.94c-3.08.43-4.73-.68-4.96-3.33-.23-2.69-.9-3.12-4.52-2.65v6.04h-4.11v-17.36c2.4,0,4.83-.15,7.22.04,2.23.18,4.55,1.02,4.97,3.45.31,1.79-.43,3.76-.71,5.72.62,2.39,1.33,5.13,2.1,8.09h0ZM335.8,339.56c1.49-.52,2.76-.78,3.79-1.42.33-.2.31-1.85-.03-2.07-1.01-.64-2.26-.9-3.76-1.43v4.92Z"/>
  <path class="cls-1" d="M408.95,68.94c-6.09,1.23-9.77,4.61-11.12,10.74-1.83-5.73-5.16-9.66-11.42-10.76,2.79-1.61,5.47-2.56,7.3-4.37,1.78-1.76,2.69-4.41,3.96-6.63,1.25,2.16,2.2,4.83,4,6.65,1.78,1.79,4.42,2.72,7.28,4.38h0Z"/>
  <path class="cls-1" d="M364.83,348.94c1.8-5.53,3.45-10.86,5.36-16.1.25-.69,1.84-1.22,2.81-1.21.82,0,2.12.73,2.37,1.43,1.85,5.17,3.49,10.41,5.28,15.86-2.35.44-4.33,1.2-5.16-2-.41-1.59-4.63-1.59-5.51-.15-1.08,1.77-2.79,2.49-5.14,2.18h0ZM372.55,337.93c-.48,1.91-.79,3.16-1.13,4.51,1.99-.05,2.36-1.55,1.13-4.51Z"/>
  <path class="cls-1" d="M247.7,349.11c-2.47.18-4.55.88-5.28-2.17-.14-.57-1.9-1.02-2.91-1.03-.87,0-2.35.55-2.51,1.14-.82,3.01-2.83,2.31-5.19,1.97,1.81-5.56,3.49-10.97,5.4-16.3.22-.63,1.72-1.12,2.61-1.09.86.03,2.23.61,2.47,1.27,1.89,5.24,3.56,10.56,5.42,16.22h0ZM241.16,342.31c-.48-1.45-.86-2.63-1.25-3.81-.18.03-.36.06-.54.1-.33,1.24-.67,2.48-1.09,4.06,1.2-.15,1.9-.23,2.87-.35h.01Z"/>
  <path class="cls-1" d="M361.84,336.71c-1.95.29-3.55.61-4.78-1.38-.34-.55-1.93-.47-2.93-.41-.38.02-1.09,1.05-.99,1.22.46.76,1.04,1.6,1.8,2.02,1.53.85,3.52,1.12,4.73,2.25,1.21,1.13,2.46,3.12,2.29,4.57-.17,1.45-1.82,3.29-3.27,3.9-2.77,1.18-5.89,1.03-8.36-1-1.05-.86-1.48-2.46-2.39-4.06,2.46-.4,4.06-1.15,5.16,1.25.33.72,2.17.92,3.34.98.46.02,1.45-1.39,1.37-1.49-.67-.86-1.44-1.73-2.37-2.27-1.44-.82-3.13-1.21-4.53-2.09-3.05-1.91-2.94-5.85.11-7.76,4.41-2.77,10.17-.64,10.82,4.26h0Z"/>
  <path class="cls-1" d="M327.26,331.53v3.43c-1.58,0-3.03.08-4.47-.02-2.55-.18-3.14.96-2.28,3.44,1.66.07,3.4.15,5.48.25.05.91.1,1.81.17,2.93-2.05.14-3.87.26-5.62.37-.77,3.75-.61,3.96,2.8,4.01.98.02,1.96.03,2.94.09.28.02.55.17.96.31v2.75h-11.42v-10.74c0-4.54,2.25-6.81,6.76-6.81h4.68Z"/>
  <path class="cls-1" d="M296.95,331.97c3.04-1,4.63-.48,5.17,2.61.52,2.97,1.56,5.85,2.96,8.86.79-2.87,1.74-5.7,2.31-8.61.58-2.94,1.96-4.1,5.28-2.86-1.77,5.44-3.49,10.92-5.43,16.32-.21.58-1.77.94-2.7.92-.79-.01-2.08-.53-2.29-1.13-1.85-5.26-3.51-10.59-5.29-16.1h0Z"/>
  <path class="cls-1" d="M400.44,330.93c1.38.85,3.07,1.44,4.05,2.62,1.12,1.35,1.61,3.23,2.41,4.95,2.85-2.24,1.67-8.57,7.9-6.59-1.95,5.67-6.92,10.27-5.36,17.12h-4.53c1.4-6.72-3.25-11.54-5.52-17.15.35-.32.71-.65,1.06-.97v.02Z"/>
  <path class="cls-1" d="M561.73,450.17c6.01,0,10.75,4.61,10.81,10.5.06,5.97-4.83,10.85-10.86,10.83-5.91-.02-10.74-4.75-10.83-10.59-.09-6.01,4.7-10.74,10.88-10.74ZM561.74,469.92c5.16.01,9.08-3.95,9.07-9.16,0-5.16-4.02-9.23-9.09-9.22-5,0-9.16,4.2-9.17,9.23,0,5.07,4.08,9.13,9.19,9.15h0Z"/>
  <path class="cls-1" d="M416.99,220.37c-2.98-.04-5.36-2.54-5.29-5.58.06-2.96,2.31-5.2,5.27-5.23,3.05-.03,5.5,2.35,5.5,5.36s-2.55,5.49-5.48,5.45h0Z"/>
  <path class="cls-1" d="M293.62,349.1h-4.07v-17.04c3.71-1.02,4.06-.78,4.07,2.71.01,4.68,0,9.36,0,14.32h0Z"/>
  <path class="cls-1" d="M400.99,45.31c4.1-1.2,6.74-3.05,7.82-7.01,1.23,3.77,3.6,5.99,7.31,6.95-3.67,1.17-6.21,3.24-7.29,7.2-1.03-4.03-3.66-6.01-7.85-7.15h0Z"/>
  <path class="cls-1" d="M202.48,256.59v-43.66c0-.98-.05-1.98.11-2.94.43-2.6,2.15-4.03,4.66-4.12,2.5-.09,4.37,1.19,4.95,3.76.28,1.23.27,2.54.27,3.81.01,28.91.01,57.82,0,86.74,0,1.27,0,2.58-.28,3.81-.6,2.56-2.48,3.82-4.99,3.69-2.5-.13-4.22-1.56-4.61-4.17-.14-.96-.1-1.96-.1-2.94v-43.98Z"/>
  <path class="cls-1" d="M226.36,256.81v43.67c0,.98.07,1.98-.09,2.95-.42,2.56-2.06,4.07-4.58,4.24-2.38.16-4.26-.96-4.96-3.34-.38-1.29-.44-2.71-.44-4.07-.02-29.02-.02-58.03-.02-87.05,0-.59-.02-1.18.01-1.77.19-3.46,2.26-5.7,5.18-5.63,2.94.07,4.86,2.31,4.87,5.85.03,15.05.01,30.1.01,45.15h.02Z"/>
  <path class="cls-1" d="M563.89,461.72c1.17,1.65,2.33,3.3,3.57,5.06-4.61,1.37-3.61-4.7-7.35-5.29.19,1.89.35,3.55.53,5.36h-2.97v-12.56c.99,0,2.42-.01,3.85,0,2.03.03,4.37.22,4.73,2.52.23,1.47-.97,3.16-1.53,4.76-.27.05-.55.11-.82.16h-.01ZM560.3,460.18c2.16.25,4.01.13,3.93-2.4-.07-2.45-1.92-2.48-3.93-2.32v4.72h0Z"/>
</svg>